<?xml version="1.0" encoding="utf-8"?>
<!-- Generator: Adobe Illustrator 22.0.0, SVG Export Plug-In . SVG Version: 6.00 Build 0)  -->
<svg version="1.1" id="Calque_1" xmlns="http://www.w3.org/2000/svg" xmlns:xlink="http://www.w3.org/1999/xlink" x="0px" y="0px"
	 viewBox="0 0 6728 2105.7" style="enable-background:new 0 0 6728 2105.7;" xml:space="preserve">
<style type="text/css">
	.st0{fill:#FFFFFF;}
</style>
<g>
	<path class="st0" d="M1207.6,1494.3l3.4,81.4c-48.4-1.9-97.5,14.7-147.2,49.8c-23.4,16.6-53.4,42.2-90.2,77l-14.1,14.9l-59.7,61.9
		c-23.2,22.9-43.3,41.8-60.3,56.5c-16.9,14.7-35.2,29.1-55,43c-52.5,37.2-104.5,61.7-155.9,73.4c-51.5,11.8-108.3,13.9-170.5,6.4
		c-72.6-9.9-135-31.8-187-65.6c-51.8-34-101.8-84.9-149.8-152.8c-20.2-28.4-35.8-54.1-46.9-76.9c-11.2-22.7-20.9-47.7-29.1-74.7
		c-15.9-53.5-24.5-94.7-25.9-123.8c-1.5-29.1,2.5-71.1,11.9-125.9c2-15.7,6.9-33.6,14.5-53.8c7.7-20.2,17.5-41.1,29.5-62.8
		c6.4-11.1,11.6-19.7,15.4-25.8c3.9-6,11-15.9,21-29.6c19.6-23.7,36.2-42.6,50.1-56.9c14.1-14.2,28.7-26.9,44-37.7
		c9.5-6.7,19.7-12.8,30.6-18.3c10.9-5.5,25.4-12.5,43.5-21l83.6-32.8c19.1-7,41-17.8,65.6-32.5c24.7-14.7,49.5-30.9,74.3-48.4
		c43-30.5,75-66.7,95.6-108.7c25.3,17.2,47,38.5,65.1,64.1c4.7,6.5,10.4,16.2,17.2,28.9c34.7,67.5,37.6,127.4,8.7,179.5
		c-14.6,25.7-31.5,45.3-50.5,58.7c-22.5,16-53.6,27.1-93.2,33.1c-30.3,5.1-59.2,4.7-86.4-1.3c-27.2-5.9-72-21.3-134.6-46.1
		c-21.4-10.1-44.8-6.1-70.4,12c-3.9,3.8-7.3,6.8-10.1,8.8c-18.9,16.6-27.3,40.1-25.1,70.3c2.3,30.2,17.4,72.1,45.3,125.7l20,35.2
		l11.8,21.3c5.2,7.3,9,12.8,11.5,16.4c4.7,6.6,8.4,11.7,11,15.4c4.6,6.5,8,11.3,10,14.2c4.1,5.8,7.1,10.3,9.2,13.1
		c3.6,5.1,6.5,9.1,8.6,12c9.8,13.9,19.5,28.1,29.2,42.5c9.8,14.5,19.9,29,30.1,43.7c4.7,6.5,8,11.3,10.1,14.2
		c28.3,40.2,50.7,69.5,67.1,88c16.4,18.6,34.1,35.9,53.2,52c37.7,34.7,67.6,58.4,89.8,71.2c22.2,12.8,45.7,19.7,70.5,20.7
		c32.3,2.3,59.4-4.3,81.4-19.8c18.3-12.9,31.7-31.4,40.3-55.6c8.6-24.2,10.2-50.2,4.7-78.1c-2.2-13.8-6.9-29.4-14.1-46.7
		c-7.4-17.2-18.8-36.9-34.3-58.7c-27.4-38.7-51.8-66.8-73.5-84.3c-21.8-17.5-51.4-31.1-88.9-40.7l-42.2-6.3l-13.8-54.3l97.2-50.7
		l82.6-43.6l5.5-3.9c4.9-2.4,9.5-5.1,14-8.2c5.1-3.6,10.1-7.2,15.2-10.8c10.3-7.3,20.5-14.5,30.7-21.8c7.9-8.9,13.9-15.2,17.7-19.1
		c31.3-28.6,57.2-58.5,77.9-89.6l54.3,25.7c-4.3,40.3,0.3,79.7,13.9,118.3c13.6,38.6,38.2,83.1,73.8,133.4
		c10.5,14.6,21.5,27.3,33.5,38c12,10.7,30.9,22.7,56.8,36.2C1156,1477.2,1181.9,1487.4,1207.6,1494.3z"/>
	<path class="st0" d="M2311.6,805.2c3.5,69.9-3.8,132.4-21.7,187.4c-17.8,54.9-49.1,107.9-93.5,158.6
		c-23.7,26.8-50.7,50.7-81.4,71.6c-30.5,21-57.9,37.8-81.9,50.8c-24.2,12.9-49.5,23.4-76,31.4c-41.1,12.4-93.5,19.9-157.2,22.4
		c-81.9,4.3-161.9-14.5-239.9-56.3c-84.7-45.3-151.9-108.2-201.4-188.5c-11.6-19.9-22.9-43.1-33.7-69.7
		c-10.8-26.6-19.5-50.6-26.1-72c-12.2-40.2-17.5-78.8-16.1-115.7c1.5-36.9,10.3-83.2,26.6-139.1c16.2-55.9,43.8-108.1,82.8-156.8
		c38.9-48.7,87.9-90,146.9-123.7c34.1-19.7,71.3-35.7,111.6-47.9c20.5-6.2,41.7-11.2,63.5-15c21.7-3.8,44.6-6,68.7-6.8
		c122.3-6.2,229,21,319.8,81.8c90.8,60.8,152.8,146,186.1,255.5C2301,714.5,2308.7,758.4,2311.6,805.2z M1985.1,842.4l-14.8-48.8
		l-3.9-12.8l-23.3-58.8l-22.3-54.9l-6.8-17.6l-15.6-33.1l-34.1-56.9c-25.8-41.7-45.8-69.7-60.5-84c-14.6-14.3-31.9-24.9-51.8-32
		c-31.7-9.1-59.9-9.8-84.7-2.3c-60,18.2-91,66.8-93.2,145.9c-0.9,9.6-0.1,23.7,2.3,42.1c2.3,18.4,6.6,44.5,13.1,78l14.9,72.5
		l4.1,18.4c3.1,13.1,6,25,8.8,35.9c2.8,10.8,5.4,20.1,7.7,27.8c3.2,10.3,5.5,18,7.1,23.1l31.9,87c10.2,24.1,19.4,45.5,27.9,64.4
		c8.6,19,17,36,25.3,51.2c30.7,55.2,63.2,93.9,97.6,116.2c34.3,22.4,67.7,28.6,100.3,18.7c25.6-7.8,48.5-23.5,68.3-47.3
		c24.2-27.9,37.6-64.2,39.9-108.8C2026.2,1010.3,2013.4,935.7,1985.1,842.4z"/>
	<path class="st0" d="M4014.6,189.2c-47.3,24.4-85.1,57.4-113.5,99.1c-28.5,41.7-53.6,102-75.7,180.7l-4,14.8l-23.7,94l-29,104.7
		l-11.9,63.1l-2.5,17.4l-10.6,47l-5.2,25.5c-2.5,24.2-3.9,43-3.9,56.4c0.1,7.2,0.1,12.1,0.1,14.8c0.1,34.8,4.4,61.6,13.1,80.4
		c8.6,18.7,22.3,34.8,41.1,48.1l-17.1,72.5l-52.4-7.8c-49.2-7-88.8-11.5-118.8-13.5c-30-2.1-60.2-3.1-90.5-2.9
		c-25.9,0.1-51,2.7-75.1,7.7c-24.1,5-50.5,11.6-79,19.8l-20.5-72.4c19.6-12.6,33.8-27.9,42.7-45.8c8.9-17.9,13.2-42.1,13.2-72.5
		c-0.1-24.1-2.5-48.7-7.1-73.8c-4.7-25-12.8-58.5-24.6-100.5c-13.6-41.9-27.2-76.7-40.8-104.4l-5.4-16.1l-8.2-16
		c-9,15.2-15.1,27.8-18.6,37.7l-17.2,48.3l-5.3,17.5l-17.2,49.7c-3.6,10.8-6.2,19.7-7.9,26.9c-6.3,20.6-10.2,34.5-11.9,41.6
		l-3.9,24.2c-4.4,25.1-7.2,43.4-8.4,55.1c-1.3,11.6-1.9,23.7-1.8,36.2c0,27.7,12.3,54.1,36.6,79l10.7,12l-23.8,77.9
		c-26.9-12.4-54-21.7-81.3-27.8c-27.4-6.1-57.9-9.1-92-8.9c-10.7,0-21,0-30.8,0.1c-9.9,0-21.9,1-36.2,2.8
		c-28.7,0.1-58.6,4.7-89.9,13.8c-9,2.7-26.7,9-53.6,19l-19.1-87.1c16.9-10.8,29.2-24,36.8-39.7c7.4-15.6,11.2-37.4,11.1-65.1
		c-0.1-37.6-7.9-85.4-23.4-143.5l-20.5-83.1l-4.1-14.7l-20.4-67l-25.9-84.4l-8.2-24.1l-4.1-12.1L2735.9,392l-10.9-28.1l-9.5-29.5
		c-14.6-41.1-31.2-72.7-50.1-95c-18.8-22.2-42.6-39.1-71.3-50.7l26.6-67.1c18.8,8.8,37.4,15.2,55.7,19.2c18.4,3.9,41.9,5.8,70.4,5.7
		l53.8,2.4l22.8,1.3c19.6-0.1,34-0.1,42.9-0.2c18.8-0.1,36.9-0.7,54.4-1.6c17.5-0.9,34.6-2.8,51.6-5.6c17-2.8,33.5-5.5,49.6-8.3
		c16.1-2.7,32.2-6.8,48.3-12.3l32.4,57.5c-39.2,33.3-58.7,75.4-58.4,126.4c0.1,9,0.5,18.7,1.5,29.5c0.9,10.7,2.8,21.4,5.5,32.2
		l21.9,101.9c15.5,61.6,28.8,109.9,40.2,144.7c11.2,34.8,24.6,68.3,40,100.4l18.6-51.1l21.2-77.9l9.2-29.5l18.6-59.1l7.8-30.9
		c8.8-44.7,13.1-81,13-108.7c-0.1-38.4-14.6-71.9-43.3-100.4l-16.2-14.7l27.9-53.7c45.6,19.5,107.4,29,185.2,28.7l42.9-2.9
		l92.6-15.2l10.6-1.3l34.9-5.6l21.7,56.3c-13.3,11.7-23.1,24.1-29.3,37c-6.3,13-9.3,29.3-9.2,49c0.1,21.5,4.3,50.5,12.4,87.2
		l5.5,26.7l10.9,40.2l12.2,40.1c19.1,63.5,40,121.5,62.5,174.1c12.3-42.1,21.5-77,27.7-104.7l5.3-21.5l11.8-61.8l6.5-42.9l7.9-43
		c2.6-12.5,4.4-25.5,5.1-38.9c0.9-13.4,1.2-27.3,1.2-41.6c-0.1-17-0.9-29.1-2.8-36.2c-8.2-44.6-20.4-74.6-36.5-89.7l-48.5-33.4
		l-6.8-5.3l-18.8-13.3l30.6-53.8c50.1,15,95,22.4,134.3,22.3l68.4-3c39.4-0.1,65.3-1.2,77.7-3c12.5-1.9,30-7.8,52.3-17.7
		L4014.6,189.2z"/>
	<path class="st0" d="M5173.3,1378.4l-42.1,46.7l-29.5-19.3c-36.7-25-68.5-42.8-95.1-53.5c-26.7-10.7-63.8-22.6-111.3-35.7
		c-30.1-8.4-59.1-12.7-86.8-13c-27.8-0.2-57.6,2.1-89.7,7.1l-38.9-65.1l8.5-5.9l18.6-11.6c22.7-15,39.2-30.1,49.6-45.4
		c10.2-15.2,19.5-37.9,27.9-68.1l6.8-24.6l-0.2-4.2l5.6-55.5v-9.8l2.8-35.4l-14.3,11.4c-27.6,19.2-51.5,31.6-71.5,37.2
		c-20.2,5.6-41.3,5.2-63.8-1c-11.2-3.1-24.8-8.2-40.9-15.5c-16.2-7.2-33.3-19.9-51.5-37.9l-20.8-25.3l-16.1,42.8
		c-21.8,78.5-0.1,147.6,65,207.4l12.4,10.4l-50.7,47.2l-35.4-27.9c-23.2-16.6-49.4-31-78.5-43.3c-29-12.2-57.4-22.2-85-29.9
		c-36.2-10-63.1-14-80.8-12c-17.8,2-35.4,9.4-52.9,22.2l-36.4-64.4l36.7-21.8c46.6-30.7,83.9-59.1,112-85.2s53.4-54.5,76-85.4
		c17.3-25.8,31.7-51,43.2-75.7c-11.1-17-24.8-27.7-41.1-32.3c-30.2-8.3-55.8,0.3-76.9,26.1l-13.8,19.8
		c-41.3-31.9-53.6-78-36.8-138.3c3.3-12,8.4-25.5,15.4-40.2c6.9-14.8,15.8-27.1,27-37c24.5-24.8,51.4-40.7,80.7-47.9
		c29.4-7.2,63.5-5.4,102.3,5.4c7.7,2.1,17,5.4,27.9,9.8c10.8,4.4,19.1,7.9,24.8,10.4l15.9,8.6l21-30.4c29-47.6,48.3-89.1,58.1-124.5
		c11.5-41.3,9.9-82.6-4.6-123.8l-13.9-30.3l45.2-37.6c33.8,25.2,61.5,42.6,83,52.3c21.5,9.6,48.5,19,81.3,28.1
		c4.9,2.3,9.5,4,13.8,5.2c5.2,1.4,10.8,3,16.8,4.7c9.5,2.6,19.4,5.4,29.8,8.2c10.3,2.9,21.7,5.6,33.9,8l30.5,5.6l36.9,7.5
		c34.4,9.6,66.7,13.9,96.6,12.9c2-0.3,19.6-2,52.8-4.8l30.5,55.8l-17.2,11.9c-25.9,19.8-43,44.7-51.4,74.9
		c-7.4,26.7-15,79.3-22.9,157.9c-5,41.3-6.8,89.5-5.4,144.6l3.6,112.4l2,38.1l1.7,74.2c1.7,44.1,4.9,82.4,9.8,114.8
		c4.9,32.4,13,63.7,24.2,93.7c5.5,16.4,12.2,32.6,19.8,48.7C5155.2,1346.8,5163.7,1362.7,5173.3,1378.4z M4795.1,879.5
		c3.1-7.5,5.2-16.9,6.5-28.1c1.2-11.2,2-28.9,2.1-53l1.7-76.1l0.1-5.5l-1.1-46.2l-0.4-33.6l-11.4-139.5l-34-8l-12,23.1l-13.4,28.3
		l-13.8,29.5l-12.4,24.4l-29.3,50.4c-15,23.7-23.9,40.7-26.7,51c-2.6,9.5-2.9,18.7-0.7,27.7c3.9,9.4,6.8,17.2,8.9,23.3l21.3,58.8
		l2.1,7.6l23.3,56.5c4.9,12.5,13,23.1,24.5,31.9c4.5,4,9.7,6.8,15.8,8.5c9.5,2.7,19.1,1.2,29.1-4.4
		C4785.2,900.4,4791.9,891.6,4795.1,879.5z"/>
	<path class="st0" d="M6698.1,1227.8c-51.8-9.4-102,5.3-150.4,43.9c-54.4,43.4-117.2,124-188.4,241.9l-36.3,62.7l-19.4,32.2
		l-16.2,29.4l-44.2,86.1c-25.5,63-39,108.6-40.5,137c-1.4,28.4,7.5,54.2,27,77.4l-75.2,51.8c-10.4-20.9-26.4-40.2-48.1-58
		c-21.6-17.8-55.5-40.5-101.2-68.3c-25.3-15.2-49.9-27-73.7-35.1c-23.8-8.1-51.3-14.8-82.7-20.1l5.2-70.6l16.7,0.7
		c49.3-0.4,81.3-12.6,95.6-36.2c10.6-17.6,14.2-42.6,10.8-75c-1.8-12.6-4.9-26.8-9.6-42.6c-4.6-15.8-10.6-33.9-18.1-54.1l-7.4-21.6
		l-24.1-66.3c-29-80.2-47.2-147.6-54.9-202.4c-7.6-54.8-7.1-109.3,1.7-163.6c-30.1,36.1-60.7,79.8-91.6,131.1l-21.8,38.6l-19.4,32.1
		l-15,30.1c-15.3,25.3-27.4,48.3-36.2,69c-8.9,20.7-15.3,45.6-19.2,74.6c-6.1,46.5-6.1,82.3,0.1,107.5c6.2,25.1,19.6,48.2,40.5,69.1
		l-53.3,57.1l-17.6-20.1c-22.2-23.8-39.7-42.2-52.8-55.3c-13-13.1-25.5-23.3-37.8-30.7c-10.7-6.5-30.6-15.9-59.8-28.3l-47.7-19.4
		l-7.6-3c-19.9-6.8-30.9-10.3-32.9-10.5c-11.9-0.9-20.7-2-26.1-3.3l17.5-83.5c33.9,2.8,64.9-2.3,93.1-15.1
		c28-12.8,55.2-35.8,81.6-69l23.4-28.2l17.5-23.9l46.5-61.3l4.9-8l34.7-57.4c17-28.3,33.3-55.6,48.6-81.9
		c15.4-26.2,30.1-56.5,44.5-90.6c33.3-75.9,53.1-134.8,59-176.7c5.9-41.8,1.5-82.4-13.4-121.7l49.1-34.6l18.6,15.9l20.2,18.4
		l19.1,17.8l27.7,21.5l39,31.4c11.4,9,23.6,18.2,36.6,27.6c13.1,9.5,28.1,19.3,44.9,29.4c25.3,15.3,50.9,27.7,77,37.2
		c26.1,9.5,53.3,17,81.3,22.5l-6.6,68c-8.1-0.7-16.7,0.9-26.3,4.5c-22.1,7.5-38.2,19.2-47.9,35.3c-15.7,26-15.7,65.7,0.1,119.1
		l17.5,51.4l9.1,29l27.9,81.1l23.7,64.5l1.2,8.5c6.6,21.8,9.9,43.6,9.8,65.5c-0.1,21.8-3.6,55.7-10.6,101.7l-4.4,33.4l26.8-41.8
		c75.9-125.5,122-222.2,138.5-290.1c16.5-67.9,9.9-129.1-19.9-183.7l48-35.3c32.7,37.5,69,68.3,108.8,92.3
		c15.4,9.3,31.3,17.9,47.9,25.8c16.6,7.9,38.8,18.3,66.7,31l52.5,19.2L6698.1,1227.8z"/>
</g>
</svg>
