<?xml version="1.0" encoding="utf-8"?>
<!-- Generator: Adobe Illustrator 22.0.0, SVG Export Plug-In . SVG Version: 6.00 Build 0)  -->
<svg version="1.1" id="Calque_1" xmlns="http://www.w3.org/2000/svg" xmlns:xlink="http://www.w3.org/1999/xlink" x="0px" y="0px"
	 viewBox="0 0 6607.9 1799.9" style="enable-background:new 0 0 6607.9 1799.9;" xml:space="preserve">
<style type="text/css">
	.st0{fill:#FFFFFF;}
	.st1{fill:#464855;}
	.st2{opacity:0.48;fill:#FFFFFF;}
	.st3{opacity:0.85;fill:#FFFFFF;}
	.st4{fill:#FCFCFC;}
</style>
<path class="st0" d="M2264.3,1114.2c0,0,178.5-89.2,185.9-119c14.9-14.9,22.3-22.3,22.3-22.3l66.9-148.7l148.7,14.9l59.5,96.7
	l52.1,89.2l-111.6,7.4l-55.5-3.6l-74.9,185.1l-100.2-114.5C2457.7,1099.3,2271.8,1121.6,2264.3,1114.2"/>
<path class="st1" d="M3119.6,541.5"/>
<polygon class="st2" points="3313,1025 3484.1,720 3253.5,407.7 3104.8,541.5 "/>
<path class="st3" d="M3312.7,1024.4l169.6-300.3c0,0,283.1,255.8,358.8,259.5v221.5l-165.2-164.3L3312.7,1024.4z"/>
<path class="st4" d="M5152.8,1743.7l-1.6-0.5l-177.2-56h-346.6l-0.8-0.3l-204.7-83.8l-233.9,45l95.3,95.3l-423.5-0.1
	c0,0-103.1-22.9-206.1-46.1c-51.5-11.6-103-23.2-141.7-32.1c-39-8.9-55.7-12.8-62.7-15.3c-84.6,27.8-317.8,45.9-327.7,46.7l-1.4,0.1
	l-158.2-93c-47.9,26-105.8,54.4-115.4,44.8l-0.9-0.9l-0.3-1.3c-24.5-122.4-258.1-173-306.1-182.2l61,122l265.5,157.3H2212l-0.9-0.4
	l-232.6-111.7L1501,1743.6L1201.7,1594l-261.1,102.6H13v-8.8h521.8l282.7-121.8l1.3,0.2l176.4,27.9l215.1-112.2l1.2,0.1l391.4,18.6
	l72-63v-142.8h77.9l189.9-132.9l146,237.2l36-234.2l2.5-0.9c3-1,298.3-103.5,343.8-203.6c46.3-101.9,65.4-140.2,65.6-140.6l1.4-2.8
	l244.4,28.2l470.3-451.5l2.9,4.2c2.3,3.4,234.2,336.9,280,373.5c3.5,2.8,8,6.4,13.4,10.8c67.7,55,273.9,222.3,367.7,222.3
	c107.1-17.9,127-53.4,127.1-53.8l2.5-4.8l4.2,3.4l270.5,223.8l169.1,18.8l71.8,98.7l45-89.9l154.7,19.3l1.1,1.5l139.5,187.4
	l176.6-11.4l1.3,1l211.8,165.7l84.1-112.2l197.8,141.7c65-11.8,122.9-14.3,160.5,0.7l1.5,1l83,83H6613v8.8h-797.6l-84.9-84.9
	c-138-53.8-571.8,138.7-576.2,140.7L5152.8,1743.7z M3861.1,1734.5h400.8l-92-92l252.9-48.6l206.4,84.4h346.2l176.9,55.9
	c23.5-10.5,238.2-104.5,409.9-138.3l-184-131.8l-84.4,112.5l-217.5-170.2l-178,11.5L4757,1228.2l-144.8-18.1l-48.7,97.3l-78-107.3
	l-167.9-18.7L4048.8,959c-8.8,10.9-39.5,38.8-131.2,54.1c0,0,0,0-0.1,0c-97.7,0-305.6-168.7-373.9-224.2c-5.4-4.4-9.9-8-13.3-10.8
	c-44.5-35.6-250.3-330.3-278.8-371.1l-465.9,447.2l-242.4-28c-5.1,10.4-24.8,51-64.1,137.5c-45.3,99.6-315.3,196.5-346.4,207.4
	l-38.9,252.6l-153.6-249.6l-184.5,129.2h-71.9v138l-77.7,68l-1.8-0.1l-392-18.7l-215.6,112.5l-178-28.1l-261.6,112.7H939
	l263.2-103.4l299.9,150l477.4-112.3l234.5,112.6h619.5l-240-142.2l-70-139.9l8.5,1.4c11.9,1.9,290.8,48.5,321.5,188.6
	c10,1.1,62.1-23.5,106.3-47.7l2.2-1.2l160.1,94.2c19.6-1.6,240.5-19.6,322.4-45.6l0.1-1.1l31.3,0l-11.9,4
	C3523.9,1659.3,3762.5,1712.6,3861.1,1734.5z M3448.7,1649.7L3448.7,1649.7L3448.7,1649.7z"/>
<path class="st4" d="M4246.4,601c-145.6,0-264-118.4-264-264s118.4-264,264-264s264,118.4,264,264S4392,601,4246.4,601z
	 M4246.4,80.5c-141.4,0-256.5,115.1-256.5,256.5s115.1,256.5,256.5,256.5s256.5-115.1,256.5-256.5S4387.8,80.5,4246.4,80.5z"/>
<polygon class="st4" points="3308.7,1031.3 3104.6,551.9 2966.5,817 3154.2,847.1 2989.9,1034.9 2778.4,853.5 2784.1,846.8 
	2989,1022.5 3137.1,853.3 2953,823.8 3105.4,531.1 3309.8,1011.2 3478.5,714.9 3486.2,719.2 "/>
<polygon class="st4" points="3849.2,1225.3 3671.8,1047.9 3309.1,1033.1 2991,1033.1 2742.8,1221.1 2624.7,1024.3 2795.6,1024.3 
	2681.7,840.5 2689.2,835.9 2811.5,1033.1 2640.3,1033.1 2745.3,1208.1 2988,1024.3 3309.3,1024.3 3675.6,1039.2 3676.8,1040.4 
	3840.4,1204 3840.4,989.3 3849.2,989.3 "/>
<polygon class="st0" points="2559.4,1223.2 2459.5,1100.3 2245.4,1126 2244.4,1117.3 2463.3,1090.9 2556.8,1206 2628.4,1027 
	2636.6,1030.3 "/>
<polygon class="st4" points="3980.5,1391.3 4032.1,1125.9 3846.7,1218.6 3842.8,1210.7 4044.2,1110 3991.7,1380 4294.4,1316.6 
	4131,1212.7 4319.8,1173.1 4321.7,1181.7 4153.6,1216.6 4317.4,1320.8 "/>
<polygon class="st4" points="4758.9,1427.3 4758,1427 4506.8,1333.7 4527.9,1390.1 3982.4,1390.1 3982.4,1381.3 4515.2,1381.3 
	4491.7,1318.7 4760.2,1418.4 4900,1408.9 4900.6,1417.8 "/>
<polygon class="st4" points="1462.5,1613.6 1395.3,1497.3 1403,1492.9 1467.1,1604 1722.3,1567.6 1841.9,1343.3 2089.2,1410.8 
	2190.8,1367.2 2313.3,1191.1 2352.2,1268.9 2556.9,1210.4 2559.3,1218.9 2347.6,1279.4 2312.1,1208.4 2196.6,1374.4 2089.9,1420.1 
	1846.4,1353.7 1728,1575.7 1725.7,1576 "/>
</svg>
